<?xml version="1.0" encoding="UTF-8"?>
<svg width="36" height="36" xmlns="http://www.w3.org/2000/svg">
 <g>
  <title>github</title>
  <g id="svg_1">
   <path stroke-width="0" d="m22.8153,35.844803l-3.506977,0l-3.50991,0c0,0 0.010303,-2.205914 0,-3.718094c-4.803506,1.09594 -6.144189,-2.788946 -6.144189,-2.788946c-0.877119,-1.859837 -1.755698,-2.788961 -1.755698,-2.788961c-1.755691,-1.103739 0,-0.929134 0,-0.929134c1.755698,0 2.632813,1.859838 2.632813,1.859838c1.540833,2.77026 4.281068,2.324396 5.265615,1.859821c0,-0.929138 0.384099,-2.3353 0.877112,-2.78896c-3.833683,-0.456779 -7.024246,-2.788961 -7.024246,-7.437763s0.881532,-5.577923 1.758636,-6.508622c-0.176603,-0.458336 -0.912428,-2.152917 0.026489,-4.648797c0,0 1.724785,0 3.480488,2.788961c0.869754,-0.921341 3.509912,-0.929139 4.388495,-0.929139c0.875643,0 3.517271,0.007798 4.387026,0.929139c1.755693,-2.788961 3.484892,-2.788961 3.484892,-2.788961c0.938931,2.49588 0.204565,4.190461 0.026489,4.648797c0.877115,0.929138 1.755693,1.859824 1.755693,6.508622s-3.186153,6.979425 -7.021305,7.437763c0.494473,0.453657 0.877111,2.053141 0.877111,2.78896l0.001472,6.505476l0,0l-0.000011,0l0.000002,0l0.000002,0z" fill="#ffffff" id="cat"/>
  </g>
 </g>

</svg>
