<?xml version="1.0"?>
<svg width="36" height="36" xmlns="http://www.w3.org/2000/svg">
 <g>
  <title>twitter_share</title>
  <g id="text" transform="translate(0, -0.1) scale(0.085)">
   <path fill="#ffffff" id="path5_1_" d="m353.430939,125.221146c-10.375,4.603989 -21.520996,7.710999 -33.223999,9.111023c11.939026,-7.160034 21.114014,-18.501007 25.435974,-32.003922c-11.177979,6.629959 -23.562988,11.43898 -36.743774,14.034943c-10.546814,-11.245972 -25.587616,-18.268951 -42.222809,-18.268951c-31.95314,0 -57.859131,25.905914 -57.859131,57.85495c0,4.53299 0.513,8.94603 1.501038,13.186066c-48.085297,-2.419037 -90.710335,-25.446075 -119.245209,-60.453995c-4.980988,8.544952 -7.833008,18.479904 -7.833008,29.088913c0,20.07196 10.209991,37.77713 25.734909,48.152237c-9.478935,-0.302017 -18.397911,-2.902008 -26.203911,-7.234085c-0.002983,0.238037 -0.002983,0.481979 -0.002983,0.726028c0,28.029068 19.943916,51.410019 46.406799,56.733917c-4.85498,1.314987 -9.967972,2.026993 -15.237946,2.026993c-3.732979,0 -7.353958,-0.373016 -10.882973,-1.040909c7.359985,22.979691 28.727913,39.708694 54.038933,40.175674c-19.795013,15.519867 -44.741943,24.769684 -71.853828,24.769684c-4.665009,0 -9.27002,-0.274994 -13.799004,-0.815948c25.608948,16.421692 56.017807,26.000671 88.687881,26.000671c106.412384,0 164.605988,-88.155228 164.605988,-164.605255c0,-2.514008 -0.057983,-5.00705 -0.165039,-7.490036c11.294983,-8.159012 21.110016,-18.343994 28.862,-29.948013l0,0l0.000031,0l0.000031,0l0.000031,0l0,0.000031l0,-0.000015z"/>
  </g>
 </g>

</svg>
